# xmcd
#
# Track frame offsets: 
#        150
#        18931
#        37517
#        59616
#        80300
#        96161
#        120884
#        137126
#        158378
#        174712
#        187586
#        203464
#        221073
#        239687
#
# Disc length: 3436 seconds
#
# Revision: 0
# Processed by: cddbd v1.5.1PL0 Copyright (c) Steve Scherf et al.
# Submitted via: ExactAudioCopy v0.95b1
#
DISCID=a60d6a0e
DTITLE=Kenny Chesney - When the Sun Goes Down
DYEAR=2004
DGENRE=Country
TTITLE0=There Goes My Life
TTITLE1=I Go Back
TTITLE2=When The Sun Goes Down
TTITLE3=The Woman With You
TTITLE4=Some People Change
TTITLE5=Anything But Mine
TTITLE6=Keg In The Closet
TTITLE7=When I Think About Leaving
TTITLE8=Being Drunk's A Lot Like Loving You
TTITLE9=Outta Here
TTITLE10=Old Blue Chair
TTITLE11=Live Those Songs
TTITLE12=What I Need To Do
TTITLE13=Please Come To Boston
EXTD=
EXTT0=
EXTT1=
EXTT2=
EXTT3=
EXTT4=
EXTT5=
EXTT6=
EXTT7=
EXTT8=
EXTT9=
EXTT10=
EXTT11=
EXTT12=
EXTT13=
PLAYORDER=
